<?xml version="1.0" standalone="no"?>
<!DOCTYPE svg PUBLIC "-//W3C//DTD SVG 1.1//EN" "http://www.w3.org/Graphics/SVG/1.1/DTD/svg11.dtd" >
<svg xmlns="http://www.w3.org/2000/svg">
<metadata></metadata>
<defs>
<font id="kievitregular" horiz-adv-x="2205" >
<font-face units-per-em="2048" ascent="1638" descent="-410" />
<missing-glyph horiz-adv-x="460" />
<glyph unicode="&#xfb01;" horiz-adv-x="1370" d="M164 0v1049h618v-127h-465v-314h410v-125h-410v-483h-153zM1042 0v1049h154v-1049h-154z" />
<glyph unicode="&#xfb02;" horiz-adv-x="1705" d="M164 0v1049h618v-127h-465v-314h410v-125h-410v-483h-153zM1032 0v1049h156v-922h448v-127h-604z" />
<glyph horiz-adv-x="2048" />
<glyph horiz-adv-x="2048" />
<glyph unicode="&#xd;" horiz-adv-x="460" />
<glyph unicode=" "  horiz-adv-x="460" />
<glyph unicode="&#x09;" horiz-adv-x="460" />
<glyph unicode="&#xa0;" horiz-adv-x="460" />
<glyph unicode="!" horiz-adv-x="483" d="M129 98q0 47 33 79t80 32t79.5 -32t32.5 -79t-32.5 -79.5t-79.5 -32.5t-80 32.5t-33 79.5zM156 1049h176l-29 -707h-117z" />
<glyph unicode="&#x22;" horiz-adv-x="669" d="M88 1364h188l-22 -455h-119zM393 1364h189l-47 -455h-119z" />
<glyph unicode="#" horiz-adv-x="1159" d="M43 446l18 115h263l43 277h-267l19 114h264l63 412h115l-61 -412h245l64 412h115l-62 -412h252l-18 -114h-252l-41 -277h254l-19 -115h-254l-67 -446h-115l68 446h-248l-68 -446h-114l67 446h-264zM440 561h246l43 277h-248z" />
<glyph unicode="$" horiz-adv-x="1021" d="M90 115l82 114q12 -10 34.5 -29.5t59.5 -39t86 -34.5t115 -17v538q-4 2 -9 4t-9 4q-61 31 -119 65t-102 78t-70.5 102t-26.5 140q0 74 26.5 134.5t70.5 103.5t104.5 69.5t128.5 36.5v222h119v-220q129 -8 202.5 -44.5t104.5 -61.5l-78 -119q-31 25 -89 54.5t-147 37.5 v-487q63 -31 126 -65.5t113 -84t81 -116t31 -158.5q0 -141 -94.5 -236.5t-249.5 -121.5v-226h-119v217q-74 2 -135.5 17.5t-107.5 37t-77.5 45t-50.5 40.5zM287 1049q0 -86 51 -138.5t129 -93.5v432q-78 -14 -129 -66.5t-51 -133.5zM573 119q88 23 139.5 84t51.5 137 q0 94 -55.5 150.5t-135.5 101.5v-473z" />
<glyph unicode="%" horiz-adv-x="1691" d="M66 1042q0 57 19 118t62 111t110 81.5t159 31.5q94 0 161.5 -31.5t110.5 -80.5t62.5 -110t19.5 -118q0 -59 -19.5 -120.5t-62.5 -110.5t-109.5 -81t-158.5 -32q-94 0 -162 32t-111 81t-62 109.5t-19 119.5zM197 1044q0 -100 59 -166.5t164 -66.5q100 0 159.5 66.5 t59.5 164.5q0 100 -59.5 166t-161.5 66t-161.5 -65.5t-59.5 -164.5zM338 0l874 1364h142l-875 -1364h-141zM922 328q0 57 19.5 117.5t62.5 110.5t109.5 82t158.5 32q94 0 161.5 -32t110.5 -81t62.5 -109.5t19.5 -117.5q0 -59 -19.5 -121t-62.5 -111t-109.5 -80.5 t-158.5 -31.5q-94 0 -161.5 31.5t-110.5 80.5t-62.5 109.5t-19.5 120.5zM1053 330q0 -100 59 -167t164 -67q100 0 159.5 67t59.5 165q0 100 -59.5 165.5t-161.5 65.5t-161.5 -65.5t-59.5 -163.5z" />
<glyph unicode="&#x26;" horiz-adv-x="1069" d="M72 270q0 57 17 101.5t48 79t73 62.5t91 54q-59 66 -95 125.5t-36 130.5q0 55 22.5 100.5t61.5 78t93 50t118 17.5q125 0 202.5 -63.5t77.5 -161.5q0 -92 -62 -157.5t-181 -131.5l266 -274q33 47 54.5 105t33.5 124l131 -23q-31 -170 -131 -299l182 -188h-178l-94 96 q-68 -53 -148.5 -83.5t-173.5 -30.5q-88 0 -157.5 22.5t-116.5 61t-72.5 91t-25.5 113.5zM225 276q0 -74 58.5 -124t167.5 -50q133 0 229 80l-299 305q-76 -41 -116 -91t-40 -120zM315 827q0 -55 30 -99t83 -97q96 51 137 99t41 106q0 49 -38 84.5t-103 35.5 q-68 0 -109 -35.5t-41 -93.5z" />
<glyph unicode="'" horiz-adv-x="382" d="M94 1364h195l-37 -455h-121z" />
<glyph unicode="(" horiz-adv-x="632" d="M113 573q0 176 41 322.5t99 260.5t121.5 194t108.5 125h144q-47 -49 -108.5 -131t-117 -196t-94.5 -257t-39 -316q0 -172 34 -315t86 -258t115.5 -206t123.5 -158h-144q-43 45 -105.5 127.5t-121.5 200.5t-101 269.5t-42 337.5z" />
<glyph unicode=")" horiz-adv-x="632" d="M6 -362q59 68 123 157.5t116 205.5t86 258t34 314t-39 315.5t-94.5 258.5t-117 196.5t-108.5 131.5h144q45 -45 108.5 -125t121.5 -193t99 -259t41 -323q0 -186 -42 -338.5t-101.5 -270.5t-121.5 -200.5t-105 -127.5h-144z" />
<glyph unicode="*" horiz-adv-x="929" d="M94 1059l37 110l275 -96l-9 291h131l-8 -291l275 96l39 -110l-281 -86l174 -234l-94 -69l-170 243l-170 -243l-94 69l174 234z" />
<glyph unicode="+" horiz-adv-x="1175" d="M86 440v125h436v418h142v-418h426v-125h-426v-440h-142v440h-436z" />
<glyph unicode="," horiz-adv-x="450" d="M104 119q0 47 33 78.5t82 31.5q55 0 95 -40.5t40 -118.5q0 -57 -15 -111.5t-37.5 -99.5t-46.5 -80t-40 -55h-104q25 35 54.5 93t29.5 117q0 27 -14.5 46.5t-31 38t-31 41t-14.5 59.5z" />
<glyph unicode="-" horiz-adv-x="632" d="M111 522v131h411v-131h-411z" />
<glyph unicode="." horiz-adv-x="450" d="M100 106q0 53 36 88t89 35t89 -35t36 -88t-35.5 -88.5t-89.5 -35.5q-53 0 -89 35.5t-36 88.5z" />
<glyph unicode="/" horiz-adv-x="823" d="M14 -330l652 1805h143l-651 -1805h-144z" />
<glyph unicode="0" horiz-adv-x="1224" d="M98 682q0 127 27 254t88 227.5t158.5 163t238.5 62.5q139 0 237.5 -63.5t160 -164t90 -227.5t28.5 -252q0 -127 -28.5 -253t-90 -226.5t-159.5 -164t-236 -63.5q-139 0 -236 63.5t-158.5 164t-90.5 226.5t-29 253zM260 682q0 -121 20.5 -226.5t63.5 -183t109.5 -123 t156.5 -45.5q92 0 159 45.5t110 123t63.5 183t20.5 226.5t-20.5 226.5t-63.5 183t-110 123t-157 45.5q-92 0 -158.5 -45.5t-109.5 -123t-63.5 -183t-20.5 -226.5z" />
<glyph unicode="1" horiz-adv-x="696" d="M41 1262l328 102h127v-1364h-154v1223l-268 -88z" />
<glyph unicode="2" horiz-adv-x="1015" d="M72 0v88q57 57 127.5 128t141.5 147.5t137.5 158.5t117.5 165t82 164t31 157q0 127 -70 187t-168 60q-109 0 -180.5 -40.5t-124.5 -94.5l-80 99q66 68 162 119t229 51q86 0 159 -25t127 -71t84 -112.5t30 -150.5q0 -119 -56.5 -237.5t-142.5 -234.5t-190.5 -223.5 t-200.5 -203.5q25 0 51 2q23 0 49.5 1t54.5 1h463v-135h-833z" />
<glyph unicode="3" horiz-adv-x="950" d="M53 1253q27 25 64 48.5t82 43t100 32t119 12.5q92 0 162.5 -24t116.5 -64.5t70 -97t24 -122.5t-25 -118t-66 -94t-95 -70.5t-111 -44.5q68 -8 130 -37t108 -75t74 -106t28 -130q0 -104 -41 -185.5t-115 -135.5t-173 -82t-216 -28q-86 0 -135.5 6.5t-65.5 10.5l23 133 q16 -4 59 -10t115 -6q188 0 286.5 76.5t98.5 211.5q0 78 -33 132.5t-91.5 87t-139 48t-175.5 15.5v111q76 0 148 19t127 56t89 89.5t34 117.5q0 86 -57.5 132t-163.5 46q-98 0 -162 -27.5t-119 -70.5z" />
<glyph unicode="4" horiz-adv-x="1079" d="M51 309v125l623 930h157v-918h197v-137h-197v-309h-145v309h-635zM211 438q27 4 77 6t97 2h297v697h-4z" />
<glyph unicode="5" horiz-adv-x="907" d="M82 -14l20 133q10 -2 43 -6t74 -4q90 0 170 20.5t139.5 60t93 100t33.5 142.5q0 84 -29.5 141.5t-84 92t-129 49t-162.5 14.5q-35 0 -65.5 -1t-47.5 -3l39 639h604v-135h-463l-22 -367q252 -4 388 -115.5t136 -304.5q0 -113 -44 -199.5t-125 -146t-192.5 -90.5 t-246.5 -31q-49 0 -81 3.5t-48 7.5z" />
<glyph unicode="6" horiz-adv-x="1058" d="M98 553q0 190 54.5 345t157 264.5t250 168t335.5 58.5l29 -121q-137 0 -250 -33t-198 -100.5t-138.5 -173t-71.5 -252.5q53 57 134 87.5t163 30.5q94 0 172 -30.5t133.5 -86t85 -132t29.5 -166.5t-29.5 -170t-85 -139.5t-135.5 -93.5t-180 -34q-121 0 -207 52.5 t-141 135.5t-81 185.5t-26 204.5zM256 553q0 -207 78 -328t231 -121q68 0 117 27t80 69t46 95t15 106q0 147 -69.5 223t-204.5 76q-98 0 -166 -29.5t-127 -86.5v-31z" />
<glyph unicode="7" horiz-adv-x="913" d="M41 1229v135h780v-111l-504 -1302l-143 49l481 1229h-614z" />
<glyph unicode="8" horiz-adv-x="999" d="M86 332q0 70 27.5 129t70.5 107t93.5 85t95.5 64q-47 31 -91 63.5t-79 72.5t-56.5 90t-21.5 116q0 72 29.5 132t82 104t122 69t149.5 25q174 0 273.5 -88.5t99.5 -233.5q0 -66 -26 -117t-65.5 -92t-88 -71.5t-93.5 -57.5q47 -25 100.5 -61.5t99.5 -83.5t75.5 -107.5 t29.5 -134.5q0 -80 -29.5 -147.5t-85 -115.5t-132 -76t-170.5 -28q-106 0 -184.5 30t-128.5 79t-73.5 113.5t-23.5 134.5zM248 340q0 -104 63.5 -167.5t188.5 -63.5q119 0 184.5 66.5t65.5 168.5q0 57 -27 103.5t-68 85t-89 68.5t-91 54q-35 -25 -75 -53.5t-73.5 -67 t-56 -86t-22.5 -108.5zM283 1059q0 -51 20.5 -91t53 -72t71.5 -57.5t76 -45.5q39 23 78 49t70.5 58t52 71t20.5 86q0 86 -55.5 143t-159.5 57t-165.5 -56t-61.5 -142z" />
<glyph unicode="9" horiz-adv-x="1058" d="M76 952q0 90 29.5 170t85 139.5t135.5 93.5t180 34q121 0 207 -50.5t141 -132.5t81 -185t26 -210q0 -190 -49.5 -347t-147.5 -268.5t-244.5 -172t-339.5 -60.5l-28 121q131 0 240.5 34t192.5 103.5t136.5 178t71.5 255.5q-53 -57 -134 -87.5t-163 -30.5q-96 0 -173 30.5 t-132.5 86t-85 132t-29.5 166.5zM236 963q0 -147 69.5 -223t204.5 -76q98 0 166 29.5t127 86.5v31q0 207 -77 328t-228 121q-68 0 -118 -27t-82 -69t-47 -95t-15 -106z" />
<glyph unicode=":" horiz-adv-x="460" d="M104 109q0 53 36 87.5t89 34.5t89 -34.5t36 -87.5t-35.5 -90t-89.5 -37q-53 0 -89 36.5t-36 90.5zM104 874q0 53 36 89t89 36t89 -36t36 -89t-35.5 -88.5t-89.5 -35.5q-53 0 -89 35.5t-36 88.5z" />
<glyph unicode=";" horiz-adv-x="460" d="M104 874q0 53 36 89t89 36t89 -36t36 -89t-35.5 -88.5t-89.5 -35.5q-53 0 -89 35.5t-36 88.5zM111 119q0 47 32.5 78.5t81.5 31.5q55 0 95 -40.5t40 -118.5q0 -57 -15 -111.5t-37.5 -99.5t-46 -80t-40.5 -55h-104q25 35 54.5 93t29.5 117q0 27 -14.5 46.5t-31 38 t-30.5 41t-14 59.5z" />
<glyph unicode="&#x3c;" horiz-adv-x="894" d="M123 487l522 539l96 -98l-436 -443l436 -440l-96 -98z" />
<glyph unicode="=" horiz-adv-x="1165" d="M143 283v127h879v-127h-879zM143 618v127h879v-124z" />
<glyph unicode="&#x3e;" horiz-adv-x="894" d="M154 45l436 440l-436 443l96 98l522 -539l-522 -540z" />
<glyph unicode="?" horiz-adv-x="692" d="M74 1022q33 16 84 31.5t123 15.5q164 0 244.5 -75.5t80.5 -192.5q0 -59 -19.5 -102.5t-49 -75t-63.5 -54t-62 -39.5q-53 -31 -71.5 -57.5t-18.5 -75.5v-55h-136v72q0 66 25 108.5t94 81.5q66 37 106 77t40 110q0 80 -50.5 117.5t-138.5 37.5q-41 0 -78 -12t-59 -23z M145 98q0 47 33 79t80 32t80 -32t33 -79t-33 -79.5t-80 -32.5t-80 32.5t-33 79.5z" />
<glyph unicode="@" horiz-adv-x="1566" d="M82 492q0 152 55.5 292t154.5 247.5t235.5 172t297.5 64.5q162 0 287 -58.5t210 -147.5t128 -199t43 -210q0 -96 -26.5 -184t-73.5 -154.5t-113 -105.5t-143 -39q-104 0 -159.5 64.5t-55.5 164.5h-4q-14 -33 -39 -72.5t-60 -74.5t-82 -58.5t-104 -23.5q-47 0 -83 20.5 t-60.5 53t-37 75.5t-12.5 87q0 98 27 195t81 175t136 126t190 48q66 0 130.5 -16t109.5 -27l-51 -284q-8 -41 -18.5 -94.5t-10.5 -100.5q0 -59 31 -101t78 -42q51 0 94 28.5t73.5 76.5t48 112.5t17.5 136.5q0 113 -43 207t-117.5 162.5t-175 107.5t-215.5 39 q-117 0 -226.5 -52t-194.5 -141.5t-136 -209t-51 -254.5q0 -123 38 -226.5t109.5 -180.5t176 -120t237.5 -43q90 0 173 18.5t132 41.5l47 -105q-57 -23 -157.5 -46t-216.5 -23q-158 0 -283 53t-212 145t-133 216t-46 264zM590 428q0 -45 18.5 -88t61.5 -43q61 0 109 49 t85 123t62.5 159t40.5 156l8 41q-8 2 -22.5 6.5t-31 7.5t-33 5t-26.5 2q-61 0 -112.5 -36t-86 -94.5t-54 -133t-19.5 -154.5z" />
<glyph unicode="A" horiz-adv-x="1284" d="M43 0l522 1364h156l524 -1364h-174l-125 338h-620l-125 -338h-158zM377 473h518l-86 234l-86 233q-16 43 -30.5 84t-26.5 76q-14 39 -27 76h-4q-12 -37 -27 -76q-12 -35 -26.5 -77t-30.5 -83z" />
<glyph unicode="B" horiz-adv-x="1171" d="M197 0v1364h360q94 0 176 -18.5t142.5 -59.5t94.5 -105.5t34 -156.5q0 -121 -66 -196.5t-178 -104.5v-4q63 -10 118.5 -38t96.5 -71t64.5 -100t23.5 -127q0 -104 -37 -177t-104.5 -119t-161.5 -66.5t-209 -20.5h-354zM354 133h193q182 0 266 58.5t84 187.5 q0 61 -17.5 110.5t-57.5 85t-104.5 54t-158.5 18.5h-205v-514zM354 778h187q158 0 228.5 57.5t70.5 178.5q0 115 -75 166t-220 51h-191v-453z" />
<glyph unicode="C" horiz-adv-x="1259" d="M109 686q0 137 45 265t131 224.5t209.5 155t281.5 58.5q131 0 219 -28t164 -75l-80 -121q-59 41 -134 65.5t-173 24.5q-123 0 -216 -47t-154.5 -124.5t-93.5 -180t-32 -213.5q0 -113 31 -217t93.5 -185t156.5 -129t221 -48q111 0 193 32.5t141 83.5l74 -114 q-27 -25 -68 -49.5t-93 -44t-115.5 -32t-135.5 -12.5q-160 0 -283.5 59.5t-208.5 158t-129 226.5t-44 267z" />
<glyph unicode="D" horiz-adv-x="1390" d="M197 0v1364h319q201 0 347.5 -49t240.5 -136t139 -210.5t45 -270.5t-46 -275t-141 -221t-242.5 -147.5t-352.5 -54.5h-309zM356 131h164q297 0 448.5 142t151.5 421t-149.5 409t-460.5 130h-154v-1102z" />
<glyph unicode="E" horiz-adv-x="1030" d="M197 0v1364h700v-135h-541v-438h475v-136h-475v-520h555v-135h-714z" />
<glyph unicode="F" horiz-adv-x="1003" d="M197 0v1364h714v-135h-555v-438h484v-136h-484v-655h-159z" />
<glyph unicode="G" horiz-adv-x="1447" d="M109 686q0 139 46 266t133 224.5t215 155t292 57.5q86 0 153.5 -12.5t119.5 -31t90 -42t67 -43.5l-84 -117q-31 25 -65 45t-76 35.5t-93 23.5t-116 8q-133 0 -230.5 -47t-161 -125.5t-93.5 -180t-30 -212.5t31 -215t93.5 -185t159.5 -130t231 -49q90 0 153.5 12t104.5 29 q49 18 79 43v383h-292v135h452v-596q-6 -6 -37.5 -28.5t-92 -48.5t-153 -45.5t-219.5 -19.5q-162 0 -287.5 59.5t-212.5 159t-132 227.5t-45 265z" />
<glyph unicode="H" horiz-adv-x="1484" d="M197 0v1364h159v-578h772v578h160v-1364h-160v651h-772v-651h-159z" />
<glyph unicode="I" horiz-adv-x="577" d="M209 0v1364h160v-1364h-160z" />
<glyph unicode="J" horiz-adv-x="579" d="M-43 -369l25 138q10 -4 30.5 -9.5t48.5 -5.5q84 0 123 58.5t39 183.5v1368h160v-1393q0 -174 -78 -267t-231 -93q-43 0 -74 7t-43 13z" />
<glyph unicode="K" horiz-adv-x="1165" d="M197 0v1364h157v-1364h-157zM360 711l549 653h187l-549 -643l586 -721h-199z" />
<glyph unicode="L" horiz-adv-x="968" d="M197 0v1364h159v-1229h537v-135h-696z" />
<glyph unicode="M" horiz-adv-x="1744" d="M111 0l186 1364h149l338 -928q16 -47 31.5 -92t28.5 -80q14 -41 26 -80h4q12 39 27 80q12 35 27.5 80t32.5 92l337 928h152l184 -1364h-161l-117 893q-4 35 -8.5 67.5t-8.5 61.5q-4 33 -6 61h-4q-10 -31 -18 -61q-10 -29 -20.5 -60.5t-22.5 -66.5l-324 -895h-153 l-332 895q-14 35 -24.5 68.5t-20.5 60.5q-10 31 -21 59h-4q-2 -31 -6 -63q-4 -29 -7 -62.5t-7 -68.5l-109 -889h-149z" />
<glyph unicode="N" horiz-adv-x="1456" d="M193 0v1364h157l643 -924q23 -35 46.5 -70.5t41.5 -64.5q23 -35 39 -65h4q-2 25 -4 53q-2 25 -3 57.5t-1 73.5v940h148v-1364h-148l-674 973q-18 25 -36.5 55.5t-34.5 56.5q-18 31 -35 64h-4q2 -25 4 -49q2 -23 3 -49.5t1 -51.5v-999h-147z" />
<glyph unicode="O" horiz-adv-x="1556" d="M109 680q0 141 45 269t131 225.5t209.5 156t281.5 58.5t283 -57.5t211 -155t132 -224.5t46 -268t-45 -269t-131 -225.5t-210 -156t-282 -58.5t-282.5 57.5t-210.5 155t-132 224.5t-46 268zM276 684q0 -115 33 -219.5t95.5 -183t155.5 -125.5t216 -47t216 46t157.5 123.5 t97.5 182t33 219.5t-33 219.5t-95 183t-155.5 125.5t-216.5 47t-216 -46t-157.5 -124.5t-97.5 -182t-33 -218.5z" />
<glyph unicode="P" horiz-adv-x="1110" d="M197 0v1364h342q102 0 190 -24.5t152.5 -73.5t100.5 -123t36 -172q0 -203 -131 -311.5t-371 -108.5h-160v-551h-159zM356 686h160q180 0 259 72t79 207q0 57 -17.5 106t-57.5 84t-103.5 54.5t-153.5 19.5h-166v-543z" />
<glyph unicode="Q" horiz-adv-x="1556" d="M109 680q0 141 45 269t131 225.5t209.5 156t281.5 58.5t283 -57.5t211 -155t132 -224.5t46 -268q0 -123 -35 -236.5t-100.5 -205.5t-160.5 -157.5t-218 -92.5q76 -96 152.5 -144.5t193.5 -48.5q59 0 103 20.5t63 37.5l59 -119q-33 -29 -91 -49.5t-136 -20.5 q-70 0 -133.5 15.5t-127 51.5t-127 95t-132.5 145q-152 4 -272.5 63.5t-204.5 156t-128 221.5t-44 264zM276 684q0 -115 33 -219.5t95.5 -183t155.5 -125.5t216 -47t216 46t157.5 123.5t97.5 182t33 219.5t-33 219.5t-95 183t-155.5 125.5t-216.5 47t-216 -46t-157.5 -124.5 t-97.5 -182t-33 -218.5z" />
<glyph unicode="R" horiz-adv-x="1167" d="M197 0v1364h370q215 0 334 -94t119 -269q0 -86 -29.5 -150.5t-81 -108.5t-121 -68.5t-151.5 -28.5v-4q20 -14 52 -50t91 -120l338 -471h-188l-275 387q-59 84 -97 132t-66.5 72.5t-53 31t-59.5 6.5h-23v-629h-159zM356 760h205q154 0 224.5 61t70.5 176t-74.5 173.5 t-232.5 58.5h-193v-469z" />
<glyph unicode="S" horiz-adv-x="1021" d="M90 115l82 114q12 -10 35.5 -30.5t62.5 -41t92.5 -34.5t120.5 -14q63 0 114.5 19t88.5 51t56.5 74t19.5 87q0 61 -26.5 107.5t-70.5 82t-100.5 65.5t-115.5 58q-61 31 -119 65t-102 78t-70.5 103t-26.5 141q0 84 33 148.5t88 109.5t127 68t149 23q76 0 135.5 -12.5 t103.5 -29t73.5 -36t46.5 -31.5l-78 -119q-18 14 -44 30.5t-61.5 31t-79.5 23.5t-98 9q-102 0 -169.5 -56t-67.5 -150q0 -51 19.5 -89t53 -69t77.5 -55.5t96 -49.5q68 -33 137 -68.5t124.5 -85.5t91.5 -120t36 -170q0 -80 -33 -147.5t-91.5 -116.5t-141.5 -76t-181 -27 q-78 0 -141.5 15.5t-111.5 37t-81.5 45t-52.5 42.5z" />
<glyph unicode="T" horiz-adv-x="1017" d="M41 1229v135h936v-135h-387v-1229h-162v1229h-387z" />
<glyph unicode="U" horiz-adv-x="1413" d="M184 510v854h160v-834q0 -213 90 -315t283 -102q184 0 273 108.5t89 280.5v862h150v-846q0 -125 -31 -225t-94.5 -171t-160.5 -109t-230 -38q-139 0 -239.5 39t-165 109t-94.5 168t-30 219z" />
<glyph unicode="V" horiz-adv-x="1261" d="M37 1364h172l350 -940q14 -41 28.5 -83t26.5 -77q14 -41 27 -80h4q12 39 25 80q10 35 24.5 77t30.5 83l342 940h158l-508 -1364h-156z" />
<glyph unicode="W" horiz-adv-x="1792" d="M43 1364h174l232 -911q10 -39 17 -80t15 -76q8 -41 17 -82h4q8 41 18 82q8 35 19.5 76t21.5 80l262 911h164l258 -905q10 -41 21.5 -83t19.5 -77q8 -41 17 -80h4q6 37 14 78q6 35 14 78t19 84l235 905h158l-375 -1364h-145l-264 922q-12 41 -22.5 87t-18.5 85 q-8 45 -19 90h-4q-12 -43 -22 -88q-10 -39 -21.5 -86t-24.5 -88l-270 -922h-145z" />
<glyph unicode="X" horiz-adv-x="1157" d="M51 0l432 707l-409 657h182l330 -528l311 528h168l-399 -657l440 -707h-182l-361 578l-344 -578h-168z" />
<glyph unicode="Y" horiz-adv-x="1136" d="M37 1364h178l365 -696h2l364 696h154l-447 -848v-516h-159v516z" />
<glyph unicode="Z" horiz-adv-x="1148" d="M94 0v113l746 1120h-711v131h899v-104l-756 -1129h781v-131h-959z" />
<glyph unicode="[" horiz-adv-x="626" d="M164 -330v1805h411v-117h-266v-1571h266v-117h-411z" />
<glyph unicode="\" horiz-adv-x="823" d="M14 1475h144l651 -1805h-143z" />
<glyph unicode="]" horiz-adv-x="626" d="M51 -213h266v1571h-266v117h412v-1805h-412v117z" />
<glyph unicode="^" horiz-adv-x="1196" d="M125 590l420 774h104l420 -774h-135l-336 616l-336 -616h-137z" />
<glyph unicode="_" horiz-adv-x="808" d="M-2 -201h813v-125h-813v125z" />
<glyph unicode="`" horiz-adv-x="1024" d="M172 1364h223l189 -258h-135z" />
<glyph unicode="a" horiz-adv-x="1077" d="M41 0l422 1049h149l426 -1049h-159l-95 240h-501l-93 -240h-149zM332 369h403l-135 346q-14 35 -24.5 66.5t-20.5 60.5q-10 31 -20 61h-5l-20 -61q-10 -29 -21.5 -61.5t-23.5 -65.5z" />
<glyph unicode="b" horiz-adv-x="989" d="M164 0v1049h307q78 0 144.5 -14.5t115.5 -45.5t78 -81t29 -122q0 -94 -52.5 -152.5t-142.5 -80.5v-2q100 -16 171 -82t71 -176q0 -80 -30 -135.5t-85 -91t-132 -51t-171 -15.5h-303zM315 125h148q137 0 200.5 36t63.5 134q0 92 -57.5 141t-196.5 49h-158v-360zM315 604 h140q121 0 174 42t53 130q0 82 -56.5 116t-166.5 34h-144v-322z" />
<glyph unicode="c" horiz-adv-x="1038" d="M94 526q0 111 37 209.5t106.5 172t171 117.5t232.5 44q106 0 179 -21.5t134 -60.5l-75 -115q-47 31 -105.5 49.5t-136.5 18.5q-94 0 -166 -30.5t-119 -85t-71.5 -129t-24.5 -163.5q0 -90 23.5 -166.5t71.5 -134t120 -89t170 -31.5q90 0 153.5 25.5t110.5 60.5l68 -109 q-43 -37 -131 -71.5t-205 -34.5q-131 0 -232.5 44t-170 118.5t-104.5 174t-36 207.5z" />
<glyph unicode="d" horiz-adv-x="1155" d="M164 0v1049h276q162 0 280 -36t193.5 -102.5t112.5 -161t37 -210.5q0 -117 -37 -215.5t-113.5 -170t-196.5 -112.5t-284 -41h-268zM317 125h127q225 0 342 98.5t117 308.5q0 213 -113.5 303.5t-353.5 90.5h-119v-801z" />
<glyph unicode="e" horiz-adv-x="911" d="M164 0v1049h629v-127h-476v-308h424v-125h-424v-362h486v-127h-639z" />
<glyph unicode="f" horiz-adv-x="868" d="M164 0v1049h618v-127h-465v-314h410v-125h-410v-483h-153z" />
<glyph unicode="g" horiz-adv-x="1189" d="M94 526q0 111 38 209.5t110.5 173t177 117.5t239.5 43q139 0 221.5 -31.5t127.5 -66.5l-74 -113q-47 33 -111.5 57.5t-167.5 24.5q-104 0 -179 -31.5t-124 -87t-72.5 -129.5t-23.5 -160t23.5 -162.5t71.5 -135t123 -92t177 -33.5q59 0 103.5 7t75 17t49 20.5t28.5 16.5 v264h-231v125h381v-463q-8 -8 -36 -27.5t-77 -39t-122 -33.5t-173 -14q-133 0 -236.5 44t-174 119.5t-107.5 174t-37 206.5z" />
<glyph unicode="h" horiz-adv-x="1226" d="M164 0v1049h153v-435h594v435h152v-1049h-152v485h-594v-485h-153z" />
<glyph unicode="i" horiz-adv-x="501" d="M174 0v1049h154v-1049h-154z" />
<glyph unicode="j" horiz-adv-x="503" d="M-31 -289l23 131q10 -4 27.5 -9t39.5 -5q66 0 97.5 43t31.5 135v1043h154v-1065q0 -141 -66.5 -215t-195.5 -74q-43 0 -70.5 5t-40.5 11z" />
<glyph unicode="k" horiz-adv-x="993" d="M164 0v1049h151v-1049h-151zM332 547l428 502h178l-428 -496l451 -553h-175z" />
<glyph unicode="l" horiz-adv-x="837" d="M164 0v1049h155v-922h449v-127h-604z" />
<glyph unicode="m" horiz-adv-x="1452" d="M100 0l150 1049h147l260 -707q12 -35 24.5 -69.5t23.5 -63.5l20 -62h4q10 31 21 64q10 29 20 62.5t25 68.5l262 707h147l148 -1049h-156l-88 655q-8 53 -12 101q-2 23 -4 47h-5q-6 -23 -14 -47q-6 -23 -15 -48.5t-20 -52.5l-243 -655h-150l-248 655q-10 29 -18 53.5 t-17 47.5q-8 23 -16 47h-4q-2 -25 -4 -49q-2 -23 -4 -49.5t-6 -53.5l-86 -651h-142z" />
<glyph unicode="n" horiz-adv-x="1206" d="M160 0v1049h155l490 -672q23 -31 41 -60.5t33 -54.5q16 -29 30 -55h4q-2 25 -4 49q-2 23 -2 50.5v58.5v684h140v-1049h-140l-518 711q-16 23 -32.5 50t-28.5 50q-14 27 -29 51h-2q0 -20 2 -43q2 -18 3 -41.5t1 -46.5v-731h-143z" />
<glyph unicode="o" horiz-adv-x="1280" d="M94 522q0 109 37 208t106.5 174t172 120t231.5 45t230.5 -44t172 -119t107.5 -173t37 -205q0 -109 -37 -207t-106.5 -173.5t-171 -120.5t-230.5 -45t-231.5 44t-173 118.5t-107.5 172t-37 205.5zM256 528q0 -84 24.5 -160.5t72.5 -134t120 -91t168 -33.5q94 0 166 32.5 t121 90t73.5 132t24.5 158.5t-24.5 161t-71.5 134t-120 91t-167 34t-167 -34t-122 -90t-73.5 -132t-24.5 -158z" />
<glyph unicode="p" horiz-adv-x="944" d="M164 0v1049h303q86 0 157.5 -18.5t125 -56.5t83 -96.5t29.5 -138.5q0 -166 -109.5 -248.5t-303.5 -82.5h-132v-408h-153zM317 532h132q135 0 197.5 48.5t62.5 152.5q0 96 -58.5 144.5t-197.5 48.5h-136v-394z" />
<glyph unicode="q" horiz-adv-x="1280" d="M94 522q0 109 37 208t106.5 174t172 120t231.5 45t230.5 -44t172 -119t107.5 -173t37 -205q0 -92 -27.5 -179t-80 -158.5t-130.5 -123t-176 -71.5q59 -70 118.5 -103.5t145.5 -33.5q47 0 83 16t50 27l56 -107q-27 -23 -76 -40t-117 -17q-57 0 -110.5 12t-105.5 40 t-104 75t-108 119q-121 6 -216 52t-160.5 119.5t-100.5 168t-35 198.5zM256 528q0 -84 24.5 -160.5t72.5 -134t120 -91t168 -33.5q94 0 166 32.5t121 90t73.5 132t24.5 158.5t-24.5 161t-71.5 134t-120 91t-167 34t-167 -34t-122 -90t-73.5 -132t-24.5 -158z" />
<glyph unicode="r" horiz-adv-x="983" d="M164 0v1049h313q180 0 278.5 -72t98.5 -213q0 -68 -23.5 -117t-63.5 -83t-95.5 -51t-116.5 -24v-4q16 -10 44 -40.5t77 -96.5l262 -348h-180l-217 301q-41 57 -69 91t-49.5 51.5t-42 21.5t-44.5 4h-19v-469h-153zM317 586h156q117 0 170 43t53 129q0 88 -56 128t-177 40 h-146v-340z" />
<glyph unicode="s" horiz-adv-x="851" d="M80 88l72 109q10 -8 29.5 -22.5t50 -29t72.5 -25.5t95 -11q98 0 157.5 42t59.5 117q0 43 -18 74t-51 55.5t-81 46t-106 48.5q-49 23 -95 49t-80.5 62t-55 82t-20.5 108q0 68 26.5 119t71.5 85.5t105.5 53t125.5 18.5q63 0 111.5 -9t84.5 -22.5t60.5 -29t40.5 -25.5 l-69 -111q-29 20 -86.5 45t-137.5 25t-132 -35t-52 -108q0 -41 15.5 -69t43 -48t64.5 -37.5t78 -36.5q55 -25 110.5 -53.5t98.5 -66t69.5 -90t26.5 -126.5q0 -135 -100.5 -212.5t-266.5 -77.5q-66 0 -117 11t-90.5 27.5t-67.5 35t-42 32.5z" />
<glyph unicode="t" horiz-adv-x="876" d="M39 922v127h799v-127h-322v-922h-156v922h-321z" />
<glyph unicode="u" horiz-adv-x="1171" d="M154 420v629h155v-611q0 -176 68.5 -251.5t218.5 -75.5q143 0 209.5 79.5t66.5 227.5v631h144v-617q0 -205 -104.5 -327.5t-321.5 -122.5q-115 0 -197 31.5t-135 90t-78.5 138.5t-25.5 178z" />
<glyph unicode="v" horiz-adv-x="1056" d="M37 1049h160l276 -711q10 -29 21.5 -60.5t21.5 -58.5q10 -31 21 -61h4q10 29 20 59q10 27 20.5 58.5t22.5 62.5l266 711h148l-408 -1049h-149z" />
<glyph unicode="w" horiz-adv-x="1480" d="M41 1049h158l186 -668q10 -33 16.5 -65.5t12.5 -59.5q6 -31 12 -59h4q6 29 14 59q6 27 14.5 59.5t18.5 67.5l197 666h153l193 -662q10 -35 18.5 -67.5t14.5 -59.5q8 -31 12 -59h4q4 29 10 59q4 27 11.5 59.5t17.5 65.5l184 664h146l-301 -1049h-142l-196 684 q-10 33 -18.5 70t-16.5 65q-8 35 -16 68h-5q-8 -33 -16 -68q-8 -29 -17.5 -65.5t-19.5 -69.5l-207 -684h-141z" />
<glyph unicode="x" horiz-adv-x="974" d="M49 0l354 549l-329 500h164l254 -396l245 396h154l-324 -512q27 -41 56 -84q25 -39 56.5 -86.5t65.5 -98.5q78 -119 179 -268h-164l-281 434l-274 -434h-156z" />
<glyph unicode="y" horiz-adv-x="956" d="M37 1049h166l282 -517h4l279 517h150l-359 -652v-397h-153v397z" />
<glyph unicode="z" horiz-adv-x="952" d="M86 0v104l576 820h-551v125h737v-101l-584 -823h602v-125h-780z" />
<glyph unicode="{" horiz-adv-x="733" d="M57 526v115q104 2 166 60.5t62 162.5v391q0 57 19.5 99.5t50 69t69.5 39t80 12.5h178v-117h-135q-72 0 -94.5 -44t-22.5 -118v-358q0 -113 -57.5 -169.5t-147.5 -78.5v-4q90 -27 147.5 -87.5t57.5 -174.5v-383q0 -76 21.5 -115t93.5 -39h137v-117h-176q-41 0 -81 13.5 t-70.5 40t-50 68.5t-19.5 99v412q0 100 -60.5 160.5t-167.5 62.5z" />
<glyph unicode="|" horiz-adv-x="581" d="M229 -512v2048h123v-2048h-123z" />
<glyph unicode="}" horiz-adv-x="733" d="M51 -213h135q72 0 94.5 44t22.5 118v381q0 113 57.5 169t147.5 79v4q-90 27 -147.5 87t-57.5 175v360q0 76 -21.5 115t-93.5 39h-137v117h176q41 0 81 -13.5t71 -40t50.5 -68.5t19.5 -100v-389q0 -100 60 -160.5t167 -62.5v-115q-104 -2 -165.5 -60t-61.5 -163v-414 q0 -57 -19.5 -99t-50.5 -68.5t-70 -39t-80 -12.5h-178v117z" />
<glyph unicode="~" horiz-adv-x="1204" d="M113 518q47 41 116.5 81t151.5 40q70 0 122 -22.5t100 -48t100.5 -48t123.5 -22.5q49 0 99.5 23.5t95.5 60.5l70 -93q-55 -53 -129 -88.5t-148 -35.5q-84 0 -142.5 22.5t-107.5 49t-94 49t-102 22.5q-61 0 -104.5 -25.5t-78.5 -56.5z" />
<glyph unicode="&#xa1;" horiz-adv-x="483" d="M129 950q0 47 33 80t80 33t79.5 -33t32.5 -80t-32.5 -78.5t-79.5 -31.5t-80 31.5t-33 78.5zM152 0l28 707h117l31 -707h-176z" />
<glyph unicode="&#xa2;" horiz-adv-x="901" d="M82 492q0 109 27.5 194.5t74.5 150t112.5 104.5t139.5 56v217h146v-208q100 -8 160.5 -40t93.5 -57l-72 -112q-39 29 -92.5 55.5t-139.5 26.5q-76 0 -131 -30t-90 -81t-52 -122t-17 -150q0 -78 17 -150t53 -125t91.5 -85t133.5 -32q45 0 85 9.5t70.5 23t52 27.5t31.5 22 l62 -112q-27 -23 -89.5 -54.5t-166.5 -42.5v-229h-146v236q-88 18 -154.5 65t-110.5 115.5t-66.5 152.5t-22.5 175z" />
<glyph unicode="&#xa3;" horiz-adv-x="958" d="M111 0v100q59 33 101 81t67.5 102.5t38 112t12.5 106.5q0 25 -2 51.5t-6 54.5h-197v121h180q-10 66 -17 136.5t-7 146.5q0 82 21.5 150.5t66.5 118.5t114.5 79t165.5 29q92 0 150.5 -24t95.5 -46l-68 -115q-29 18 -74.5 35.5t-123.5 17.5q-104 0 -148.5 -69.5 t-44.5 -179.5q0 -66 7.5 -136.5t15.5 -142.5h309v-121h-295q2 -27 3 -51.5t1 -48.5q0 -78 -15.5 -140.5t-39 -109.5t-50 -80t-48.5 -51h528v-127h-741z" />
<glyph unicode="&#xa4;" horiz-adv-x="1193" d="M80 461v121h143q-2 27 -3 52t-1 52v30.5t2 31.5h-141v120h156q20 109 64 204t114.5 166t166 111t216.5 40q129 0 199.5 -26t119.5 -56l-69 -125q-33 18 -92.5 45.5t-161.5 27.5q-84 0 -151 -29.5t-115 -81.5t-79.5 -123t-46.5 -153h365v-120h-379q-2 -14 -2 -28.5v-29.5 q0 -29 1 -55.5t3 -52.5h377v-121h-354q18 -74 51 -138.5t81 -111.5t111.5 -73.5t145.5 -26.5q92 0 155.5 26.5t102.5 52.5l74 -114q-25 -16 -53.5 -33.5t-68.5 -32t-92.5 -25t-121.5 -10.5q-117 0 -209 38t-161 103.5t-115 153.5t-68 191h-164z" />
<glyph unicode="&#xa5;" horiz-adv-x="1064" d="M4 1364h178l363 -696h4l364 696h154l-414 -782h295v-121h-330v-146h330v-120h-330v-195h-155v195h-330v120h330v146h-330v121h293z" />
<glyph unicode="&#xa6;" d="M143 -444v1919h1919v-1919h-1919zM297 -291h1612v1612h-1612v-1612zM782 0v1042h140v-495l413 495h162l-414 -489l441 -553h-174q-121 150 -215 268q-41 51 -80 98.5t-68 86.5q-37 43 -65 84v-537h-140z" />
<glyph unicode="&#xa7;" horiz-adv-x="856" d="M90 745q0 47 13.5 87t34 72t45 55.5t46.5 39.5q-25 35 -45 83t-20 108q0 76 28.5 134t73.5 97t101.5 58.5t111.5 19.5q92 0 148.5 -22.5t91.5 -49.5l-72 -114q-25 16 -60.5 36.5t-107.5 20.5q-45 0 -76.5 -15.5t-52 -40t-31 -54t-10.5 -60.5q0 -55 34 -111.5t85 -116 t109.5 -120.5t109.5 -127t85 -136.5t34 -146.5q0 -47 -14.5 -87t-36 -72.5t-45 -57t-41.5 -41.5q25 -41 43 -89t18 -95q0 -82 -27.5 -141.5t-72.5 -97t-102.5 -55t-116.5 -17.5q-82 0 -141.5 22.5t-94.5 44.5l66 115q29 -16 69.5 -33.5t100.5 -17.5q92 0 133 49t41 121 q0 55 -34 111.5t-84 114.5t-109.5 119.5t-109.5 127t-84 136.5t-34 146zM238 745q0 -51 36.5 -113.5t87 -126t103.5 -120.5t86 -96q31 29 50.5 64.5t19.5 88.5t-37 117t-88.5 126.5t-105.5 118.5t-87 95q-31 -23 -48 -57.5t-17 -96.5z" />
<glyph unicode="&#xa8;" horiz-adv-x="1024" d="M211 1212q0 45 31.5 77t76.5 32q47 0 79 -32t32 -77q0 -47 -31.5 -78.5t-79.5 -31.5q-45 0 -76.5 31.5t-31.5 78.5zM594 1212q0 45 31.5 77t76.5 32q47 0 79 -32t32 -77q0 -47 -31.5 -78.5t-79.5 -31.5q-45 0 -76.5 31.5t-31.5 78.5z" />
<glyph unicode="&#xa9;" horiz-adv-x="1771" d="M123 735q0 158 60.5 297t164 242.5t241.5 164t296 60.5t297 -60.5t242.5 -164t164 -242.5t60.5 -297t-60.5 -297t-164 -242.5t-243 -164t-296.5 -60.5q-158 0 -296 60.5t-241.5 164t-164 243t-60.5 296.5zM238 735q0 -143 49 -264t135 -208t204.5 -136t258.5 -49 q139 0 258 49t206 136t136 208t49 264t-49 263t-136 208t-206 137.5t-258 49.5t-258 -49.5t-205 -137.5t-135 -207.5t-49 -263.5zM432 735q0 100 36 186.5t99.5 151t149.5 101t184 36.5q109 0 173.5 -30.5t115.5 -71.5l-78 -98q-33 29 -81 54.5t-132 25.5q-82 0 -141.5 -32 t-99.5 -82t-59 -112.5t-19 -124.5q0 -74 25.5 -139t69.5 -114.5t104.5 -77t129.5 -27.5q90 0 146.5 30.5t91.5 59.5l63 -104q-51 -41 -123.5 -74t-185.5 -33q-102 0 -188 38t-148.5 102.5t-97.5 151.5t-35 183z" />
<glyph unicode="&#xaa;" horiz-adv-x="739" d="M70 842q0 53 20.5 93t52.5 69q57 47 144.5 64t185.5 17v56q0 66 -28.5 102.5t-104.5 36.5q-66 0 -109 -25.5t-69 -46.5l-68 86q29 25 91.5 60t160.5 35q119 0 184.5 -57.5t65.5 -180.5v-322q0 -51 5 -93t13 -74h-127q-6 35 -10 71q-29 -31 -78 -59.5t-114 -28.5 q-45 0 -84 14.5t-69 41t-46 62.5t-16 79zM199 846q0 -45 29.5 -69.5t72.5 -24.5q35 0 62.5 10t49 24.5t36 29.5t24.5 26v149q-86 0 -147.5 -11t-98.5 -52q-29 -31 -28 -82z" />
<glyph unicode="&#xab;" horiz-adv-x="974" d="M92 502l273 389h157l-270 -389l270 -387h-157zM457 502l272 389h158l-271 -389l271 -387h-158z" />
<glyph unicode="&#xac;" d="M143 -444v1919h1919v-1919h-1919zM297 -291h1612v1612h-1612v-1612zM516 0l141 1042h136l247 -688q12 -35 22.5 -66.5t20.5 -60.5l21 -61h4q8 29 18 61q8 29 19.5 60.5t23.5 66.5l252 688h135l142 -1042h-146l-84 643q-4 27 -6 53.5t-6 46.5q-4 23 -6 45h-4 q-4 -20 -12 -43q-6 -20 -13.5 -44.5t-17.5 -51.5l-236 -649h-135l-239 649l-50 139h-4q-2 -23 -4 -45q-2 -20 -4 -46.5t-6 -53.5l-80 -643h-129z" />
<glyph unicode="&#xad;" horiz-adv-x="632" d="M111 522v131h411v-131h-411z" />
<glyph unicode="&#xae;" horiz-adv-x="1771" d="M123 735q0 158 60.5 297t164 242.5t241.5 164t296 60.5t297 -60.5t242.5 -164t164 -242.5t60.5 -297t-60.5 -297t-164 -242.5t-243 -164t-296.5 -60.5q-158 0 -296 60.5t-241.5 164t-164 243t-60.5 296.5zM238 735q0 -143 49 -264t135 -208t204.5 -136t258.5 -49 q139 0 258 49t206 136t136 208t49 264t-49 263t-136 208t-206 137.5t-258 49.5t-258 -49.5t-205 -137.5t-135 -207.5t-49 -263.5zM608 279v925h301q70 0 124 -21.5t89 -57t53.5 -83t18.5 -98.5q0 -102 -64.5 -162.5t-181.5 -76.5q31 -23 55.5 -51.5t53.5 -69.5l215 -305 h-162l-223 325q-35 51 -63.5 70.5t-82.5 19.5v-415h-133zM741 799h95q39 0 77.5 4t69.5 18.5t49.5 44t18.5 78.5q0 66 -38 106t-134 40h-138v-291z" />
<glyph unicode="&#xaf;" horiz-adv-x="1024" d="M233 1176v124h555v-124h-555z" />
<glyph unicode="&#xb0;" horiz-adv-x="708" d="M86 1122q0 55 21.5 103.5t57.5 84.5t85 57.5t104 21.5t104.5 -21.5t85.5 -57.5t57.5 -84.5t21.5 -103.5t-20.5 -103t-57.5 -84t-86 -57.5t-105 -21.5q-55 0 -104 21.5t-85 57.5t-57.5 84t-21.5 103zM199 1122q0 -68 44 -114.5t111 -46.5q68 0 112 46.5t44 114.5 q0 66 -44 114t-112 48t-111.5 -48t-43.5 -114z" />
<glyph unicode="&#xb1;" horiz-adv-x="2574" d="M164 0v1049h618v-127h-465v-314h410v-125h-410v-483h-153zM1032 0v1049h619v-127h-465v-314h409v-125h-409v-483h-154zM1901 0v1049h155v-922h449v-127h-604z" />
<glyph unicode="&#xb2;" d="M143 -444v1919h1919v-1919h-1919zM297 -291h1612v1612h-1612v-1612zM782 0v1042h140v-495l413 495h162l-414 -489l441 -553h-174q-121 150 -215 268q-41 51 -80 98.5t-68 86.5q-37 43 -65 84v-537h-140z" />
<glyph unicode="&#xb3;" d="M143 -444v1919h1919v-1919h-1919zM297 -291h1612v1612h-1612v-1612zM782 0v1042h140v-495l413 495h162l-414 -489l441 -553h-174q-121 150 -215 268q-41 51 -80 98.5t-68 86.5q-37 43 -65 84v-537h-140z" />
<glyph unicode="&#xb4;" horiz-adv-x="1024" d="M453 1106l188 258h223l-276 -258h-135z" />
<glyph unicode="&#xb6;" horiz-adv-x="1318" d="M133 961q0 92 32 165.5t85 127t126 82t156 28.5h654v-129h-164v-1597h-137v1597h-213v-1597h-140v923q-82 0 -154.5 27.5t-126.5 80t-86 126t-32 166.5z" />
<glyph unicode="&#xb7;" horiz-adv-x="450" d="M100 596q0 53 36 88t89 35t89 -35t36 -88t-35.5 -89t-89.5 -36q-53 0 -89 36t-36 89z" />
<glyph unicode="&#xb8;" horiz-adv-x="1024" d="M328 -424l24 86q14 -8 41 -15t68 -7q47 0 74.5 19t27.5 60q0 29 -12 45.5t-32.5 25.5t-47.5 11t-53 2l74 197h104l-51 -135q63 -10 103 -47.5t40 -96.5q0 -84 -66.5 -127t-158.5 -43q-55 0 -87 8.5t-48 16.5z" />
<glyph unicode="&#xb9;" d="M143 -444v1919h1919v-1919h-1919zM297 -291h1612v1612h-1612v-1612zM782 0v1042h140v-495l413 495h162l-414 -489l441 -553h-174q-121 150 -215 268q-41 51 -80 98.5t-68 86.5q-37 43 -65 84v-537h-140z" />
<glyph unicode="&#xba;" horiz-adv-x="804" d="M72 1016q0 68 17 135.5t56 120.5t100.5 86t149.5 33t151.5 -33t104.5 -85t61.5 -119t20.5 -134q0 -68 -19.5 -135.5t-60.5 -120.5t-103.5 -86t-150.5 -33t-149.5 33t-101 85t-58 118.5t-18.5 134.5zM209 1020q0 -117 45 -192.5t147 -75.5q104 0 148.5 73.5t44.5 190.5 t-48.5 191.5t-152.5 74.5q-102 0 -143 -72.5t-41 -189.5z" />
<glyph unicode="&#xbb;" horiz-adv-x="974" d="M88 115l270 387l-270 389h156l274 -389l-274 -387h-156zM453 115l270 387l-270 389h155l275 -389l-275 -387h-155z" />
<glyph unicode="&#xbc;" d="M143 -444v1919h1919v-1919h-1919zM297 -291h1612v1612h-1612v-1612zM782 0v1042h140v-495l413 495h162l-414 -489l441 -553h-174q-121 150 -215 268q-41 51 -80 98.5t-68 86.5q-37 43 -65 84v-537h-140z" />
<glyph unicode="&#xbd;" d="M143 -444v1919h1919v-1919h-1919zM297 -291h1612v1612h-1612v-1612zM782 0v1042h140v-495l413 495h162l-414 -489l441 -553h-174q-121 150 -215 268q-41 51 -80 98.5t-68 86.5q-37 43 -65 84v-537h-140z" />
<glyph unicode="&#xbe;" d="M143 -444v1919h1919v-1919h-1919zM297 -291h1612v1612h-1612v-1612zM782 0v1042h140v-495l413 495h162l-414 -489l441 -553h-174q-121 150 -215 268q-41 51 -80 98.5t-68 86.5q-37 43 -65 84v-537h-140z" />
<glyph unicode="&#xbf;" horiz-adv-x="692" d="M86 250q0 57 19.5 101t49 76t63.5 54.5t63 38.5q53 31 71.5 57.5t18.5 75.5v56h135v-72q0 -66 -24.5 -109t-94.5 -82q-66 -37 -105.5 -76.5t-39.5 -109.5q0 -80 50 -118t138 -38q41 0 78 12.5t59 22.5l51 -110q-33 -16 -84 -31.5t-122 -15.5q-164 0 -245 75.5t-81 192.5z M322 952q0 47 32.5 80t79.5 33t80 -33t33 -80t-33 -78.5t-80 -31.5t-79.5 31.5t-32.5 78.5z" />
<glyph unicode="&#xc0;" horiz-adv-x="1284" d="M43 0l522 1364h156l524 -1364h-174l-125 338h-620l-125 -338h-158zM293 1733h223l189 -258h-135zM377 473h518l-86 234l-86 233q-16 43 -30.5 84t-26.5 76q-14 39 -27 76h-4q-12 -37 -27 -76q-12 -35 -26.5 -77t-30.5 -83z" />
<glyph unicode="&#xc1;" horiz-adv-x="1284" d="M43 0l522 1364h156l524 -1364h-174l-125 338h-620l-125 -338h-158zM377 473h518l-86 234l-86 233q-16 43 -30.5 84t-26.5 76q-14 39 -27 76h-4q-12 -37 -27 -76q-12 -35 -26.5 -77t-30.5 -83zM578 1475l188 258h223l-276 -258h-135z" />
<glyph unicode="&#xc2;" horiz-adv-x="1284" d="M43 0l522 1364h156l524 -1364h-174l-125 338h-620l-125 -338h-158zM326 1477l252 313h110l248 -313h-141l-166 174l-162 -174h-141zM377 473h518l-86 234l-86 233q-16 43 -30.5 84t-26.5 76q-14 39 -27 76h-4q-12 -37 -27 -76q-12 -35 -26.5 -77t-30.5 -83z" />
<glyph unicode="&#xc3;" horiz-adv-x="1284" d="M43 0l522 1364h156l524 -1364h-174l-125 338h-620l-125 -338h-158zM334 1571q14 18 32.5 40t42 40t53.5 30.5t65 12.5q39 0 66.5 -12.5t51 -27.5t47 -27.5t52.5 -12.5q41 0 66.5 23.5t37.5 40.5l80 -78q-16 -20 -35.5 -42t-43 -38t-52.5 -27.5t-66 -11.5t-64.5 12.5 t-51 27.5t-47 27.5t-54.5 12.5q-35 0 -60.5 -25.5t-39.5 -40.5zM377 473h518l-86 234l-86 233q-16 43 -30.5 84t-26.5 76q-14 39 -27 76h-4q-12 -37 -27 -76q-12 -35 -26.5 -77t-30.5 -83z" />
<glyph unicode="&#xc4;" horiz-adv-x="1284" d="M43 0l522 1364h156l524 -1364h-174l-125 338h-620l-125 -338h-158zM330 1581q0 45 31.5 77t76.5 32q47 0 79 -32t32 -77q0 -47 -31.5 -78.5t-79.5 -31.5q-45 0 -76.5 31.5t-31.5 78.5zM377 473h518l-86 234l-86 233q-16 43 -30.5 84t-26.5 76q-14 39 -27 76h-4 q-12 -37 -27 -76q-12 -35 -26.5 -77t-30.5 -83zM713 1581q0 45 31.5 77t76.5 32q47 0 79 -32t32 -77q0 -47 -31.5 -78.5t-79.5 -31.5q-45 0 -76.5 31.5t-31.5 78.5z" />
<glyph unicode="&#xc5;" horiz-adv-x="1284" d="M43 0l522 1364h156l524 -1364h-174l-125 338h-620l-125 -338h-158zM377 473h518l-86 234l-86 233q-16 43 -30.5 84t-26.5 76q-14 39 -27 76h-4q-12 -37 -27 -76q-12 -35 -26.5 -77t-30.5 -83zM442 1634q0 41 16.5 77t43 61.5t61.5 41t74 15.5t73.5 -15.5t61.5 -41 t43 -61.5t16 -77t-16 -76.5t-43 -61.5t-61.5 -41t-73.5 -15t-74 15t-61.5 41t-43 61.5t-16.5 76.5zM535 1634q0 -45 27.5 -78.5t74.5 -33.5t74.5 33.5t27.5 78.5q0 47 -27.5 80t-74.5 33t-74.5 -33t-27.5 -80z" />
<glyph unicode="&#xc6;" horiz-adv-x="1669" d="M-31 0l785 1364h782v-135h-541v-438h475v-136h-475v-520h555v-135h-714v373h-484l-209 -373h-174zM428 506h408v727z" />
<glyph unicode="&#xc7;" horiz-adv-x="1259" d="M109 686q0 137 45 265t131 224.5t209.5 155t281.5 58.5q131 0 219 -28t164 -75l-80 -121q-59 41 -134 65.5t-173 24.5q-123 0 -216 -47t-154.5 -124.5t-93.5 -180t-32 -213.5q0 -113 31 -217t93.5 -185t156.5 -129t221 -48q111 0 193 32.5t141 83.5l74 -114 q-27 -25 -68 -49.5t-93 -44t-115.5 -32t-135.5 -12.5h-8l-41 -110q63 -10 103 -47t40 -97q0 -84 -66.5 -127t-158.5 -43q-55 0 -87 8.5t-48 16.5l24 86q14 -8 41 -15t68 -7q47 0 74.5 19t27.5 60q0 29 -12 45.5t-32.5 25.5t-47 11t-53.5 2l68 181q-135 20 -238.5 84.5 t-174.5 160t-107.5 213t-36.5 244.5z" />
<glyph unicode="&#xc8;" horiz-adv-x="1030" d="M197 0v1364h700v-135h-541v-438h475v-136h-475v-520h555v-135h-714zM219 1733h223l189 -258h-135z" />
<glyph unicode="&#xc9;" horiz-adv-x="1030" d="M197 0v1364h700v-135h-541v-438h475v-136h-475v-520h555v-135h-714zM486 1475l188 258h223l-276 -258h-135z" />
<glyph unicode="&#xca;" horiz-adv-x="1030" d="M197 0v1364h700v-135h-541v-438h475v-136h-475v-520h555v-135h-714zM254 1477l252 313h110l248 -313h-141l-166 174l-162 -174h-141z" />
<glyph unicode="&#xcb;" horiz-adv-x="1030" d="M197 0v1364h700v-135h-541v-438h475v-136h-475v-520h555v-135h-714zM246 1581q0 45 31.5 77t76.5 32q47 0 79 -32t32 -77q0 -47 -31.5 -78.5t-79.5 -31.5q-45 0 -76.5 31.5t-31.5 78.5zM629 1581q0 45 31.5 77t76.5 32q47 0 79 -32t32 -77q0 -47 -31.5 -78.5t-79.5 -31.5 q-45 0 -76.5 31.5t-31.5 78.5z" />
<glyph unicode="&#xcc;" horiz-adv-x="577" d="M-59 1733h223l188 -258h-135zM209 0v1364h160v-1364h-160z" />
<glyph unicode="&#xcd;" horiz-adv-x="577" d="M209 0v1364h160v-1364h-160zM217 1475l189 258h223l-277 -258h-135z" />
<glyph unicode="&#xce;" horiz-adv-x="577" d="M-16 1477l252 313h110l248 -313h-141l-166 174l-162 -174h-141zM209 0v1364h160v-1364h-160z" />
<glyph unicode="&#xcf;" horiz-adv-x="577" d="M-12 1581q0 45 31.5 77t76.5 32q47 0 79 -32t32 -77q0 -47 -32 -79t-79 -32q-45 0 -76.5 32t-31.5 79zM209 0v1364h160v-1364h-160zM371 1581q0 45 31.5 77t76.5 32q47 0 79 -32t32 -77q0 -47 -32 -79t-79 -32q-45 0 -76.5 32t-31.5 79z" />
<glyph unicode="&#xd0;" horiz-adv-x="1390" d="M53 643v119h144v602h319q201 0 347.5 -49t240.5 -136t139 -210t45 -271q0 -147 -46 -275t-141 -221t-242.5 -147.5t-352.5 -54.5h-309v643h-144zM356 131h164q297 0 448.5 142.5t151.5 420.5q0 279 -149.5 409t-460.5 130h-154v-471h228v-119h-228v-512z" />
<glyph unicode="&#xd1;" horiz-adv-x="1456" d="M193 0v1364h157l643 -924q23 -35 46.5 -70.5t41.5 -64.5q23 -35 39 -65h4q-2 25 -4 53q-2 25 -3 57.5t-1 73.5v940h148v-1364h-148l-674 973q-18 25 -36.5 55.5t-34.5 56.5q-18 31 -35 64h-4q2 -25 4 -49q2 -23 3 -49.5t1 -51.5v-999h-147zM430 1571q14 18 32.5 40t42 40 t53.5 30.5t65 12.5q39 0 66.5 -12.5t51 -27.5t47 -27.5t52.5 -12.5q41 0 66.5 23.5t37.5 40.5l80 -78q-16 -20 -35.5 -42t-43 -38t-52.5 -27.5t-66 -11.5t-64.5 12.5t-51 27.5t-47 27.5t-54.5 12.5q-35 0 -60.5 -25.5t-39.5 -40.5z" />
<glyph unicode="&#xd2;" horiz-adv-x="1556" d="M109 680q0 141 45 269t131 225.5t209.5 156t281.5 58.5t283 -57.5t211 -155t132 -224.5t46 -268t-45 -269t-131 -225.5t-210 -156t-282 -58.5t-282.5 57.5t-210.5 155t-132 224.5t-46 268zM276 684q0 -115 33 -219.5t95.5 -183t155.5 -125.5t216 -47t216 46t157.5 123.5 t97.5 182t33 219.5t-33 219.5t-95 183t-155.5 125.5t-216.5 47t-216 -46t-157.5 -124.5t-97.5 -182t-33 -218.5zM465 1733h223l189 -258h-135z" />
<glyph unicode="&#xd3;" horiz-adv-x="1556" d="M109 680q0 141 45 269t131 225.5t209.5 156t281.5 58.5t283 -57.5t211 -155t132 -224.5t46 -268t-45 -269t-131 -225.5t-210 -156t-282 -58.5t-282.5 57.5t-210.5 155t-132 224.5t-46 268zM276 684q0 -115 33 -219.5t95.5 -183t155.5 -125.5t216 -47t216 46t157.5 123.5 t97.5 182t33 219.5t-33 219.5t-95 183t-155.5 125.5t-216.5 47t-216 -46t-157.5 -124.5t-97.5 -182t-33 -218.5zM750 1475l188 258h223l-276 -258h-135z" />
<glyph unicode="&#xd4;" horiz-adv-x="1556" d="M109 680q0 141 45 269t131 225.5t209.5 156t281.5 58.5t283 -57.5t211 -155t132 -224.5t46 -268t-45 -269t-131 -225.5t-210 -156t-282 -58.5t-282.5 57.5t-210.5 155t-132 224.5t-46 268zM276 684q0 -115 33 -219.5t95.5 -183t155.5 -125.5t216 -47t216 46t157.5 123.5 t97.5 182t33 219.5t-33 219.5t-95 183t-155.5 125.5t-216.5 47t-216 -46t-157.5 -124.5t-97.5 -182t-33 -218.5zM473 1477l252 313h110l248 -313h-141l-166 174l-162 -174h-141z" />
<glyph unicode="&#xd5;" horiz-adv-x="1556" d="M109 680q0 141 45 269t131 225.5t209.5 156t281.5 58.5t283 -57.5t211 -155t132 -224.5t46 -268t-45 -269t-131 -225.5t-210 -156t-282 -58.5t-282.5 57.5t-210.5 155t-132 224.5t-46 268zM276 684q0 -115 33 -219.5t95.5 -183t155.5 -125.5t216 -47t216 46t157.5 123.5 t97.5 182t33 219.5t-33 219.5t-95 183t-155.5 125.5t-216.5 47t-216 -46t-157.5 -124.5t-97.5 -182t-33 -218.5zM481 1571q14 18 32.5 40t42 40t53.5 30.5t65 12.5q39 0 66.5 -12.5t51 -27.5t47 -27.5t52.5 -12.5q41 0 66.5 23.5t37.5 40.5l80 -78q-16 -20 -35.5 -42 t-43 -38t-52.5 -27.5t-66 -11.5t-64.5 12.5t-51 27.5t-47 27.5t-54.5 12.5q-35 0 -60.5 -25.5t-39.5 -40.5z" />
<glyph unicode="&#xd6;" horiz-adv-x="1556" d="M109 680q0 141 45 269t131 225.5t209.5 156t281.5 58.5t283 -57.5t211 -155t132 -224.5t46 -268t-45 -269t-131 -225.5t-210 -156t-282 -58.5t-282.5 57.5t-210.5 155t-132 224.5t-46 268zM276 684q0 -115 33 -219.5t95.5 -183t155.5 -125.5t216 -47t216 46t157.5 123.5 t97.5 182t33 219.5t-33 219.5t-95 183t-155.5 125.5t-216.5 47t-216 -46t-157.5 -124.5t-97.5 -182t-33 -218.5zM477 1581q0 45 31.5 77t76.5 32q47 0 79 -32t32 -77q0 -47 -31.5 -78.5t-79.5 -31.5q-45 0 -76.5 31.5t-31.5 78.5zM860 1581q0 45 31.5 77t76.5 32 q47 0 79 -32t32 -77q0 -47 -31.5 -78.5t-79.5 -31.5q-45 0 -76.5 31.5t-31.5 78.5z" />
<glyph unicode="&#xd7;" d="M143 -444v1919h1919v-1919h-1919zM297 -291h1612v1612h-1612v-1612zM782 0v1042h140v-495l413 495h162l-414 -489l441 -553h-174q-121 150 -215 268q-41 51 -80 98.5t-68 86.5q-37 43 -65 84v-537h-140z" />
<glyph unicode="&#xd8;" horiz-adv-x="1556" d="M109 680q0 141 45 269t131 225.5t209.5 156t281.5 58.5q111 0 203 -28t168 -79l131 195l90 -68l-133 -197q104 -98 158.5 -236t54.5 -292q0 -141 -45 -269t-131 -225.5t-210 -156t-282 -58.5q-94 0 -175 20.5t-150 59.5l-127 -188l-88 63l122 185q-123 98 -188 246.5 t-65 318.5zM272 684q0 -139 43 -257t129 -198l629 938q-59 43 -132 66.5t-161 23.5q-123 0 -218 -46t-159.5 -124.5t-97.5 -182t-33 -220.5zM528 168q53 -29 115 -45.5t133 -16.5q123 0 217 46.5t159 125t98.5 182t33.5 220.5q0 123 -33.5 229.5t-99.5 184.5z" />
<glyph unicode="&#xd9;" horiz-adv-x="1413" d="M184 510v854h160v-834q0 -213 90 -315t283 -102q184 0 273 108.5t89 280.5v862h150v-846q0 -125 -31 -225t-94.5 -171t-160.5 -109t-230 -38q-139 0 -239.5 39t-165 109t-94.5 168t-30 219zM383 1733h223l189 -258h-135z" />
<glyph unicode="&#xda;" horiz-adv-x="1413" d="M184 510v854h160v-834q0 -213 90 -315t283 -102q184 0 273 108.5t89 280.5v862h150v-846q0 -125 -31 -225t-94.5 -171t-160.5 -109t-230 -38q-139 0 -239.5 39t-165 109t-94.5 168t-30 219zM639 1475l188 258h223l-276 -258h-135z" />
<glyph unicode="&#xdb;" horiz-adv-x="1413" d="M184 510v854h160v-834q0 -213 90 -315t283 -102q184 0 273 108.5t89 280.5v862h150v-846q0 -125 -31 -225t-94.5 -171t-160.5 -109t-230 -38q-139 0 -239.5 39t-165 109t-94.5 168t-30 219zM424 1477l252 313h110l248 -313h-141l-166 174l-162 -174h-141z" />
<glyph unicode="&#xdc;" horiz-adv-x="1413" d="M184 510v854h160v-834q0 -213 90 -315t283 -102q184 0 273 108.5t89 280.5v862h150v-846q0 -125 -31 -225t-94.5 -171t-160.5 -109t-230 -38q-139 0 -239.5 39t-165 109t-94.5 168t-30 219zM410 1581q0 45 31.5 77t76.5 32q47 0 79 -32t32 -77q0 -47 -31.5 -78.5 t-79.5 -31.5q-45 0 -76.5 31.5t-31.5 78.5zM793 1581q0 45 31.5 77t76.5 32q47 0 79 -32t32 -77q0 -47 -31.5 -78.5t-79.5 -31.5q-45 0 -76.5 31.5t-31.5 78.5z" />
<glyph unicode="&#xdd;" horiz-adv-x="1136" d="M37 1364h178l365 -696h2l364 696h154l-447 -848v-516h-159v516zM500 1475l188 258h223l-276 -258h-135z" />
<glyph unicode="&#xde;" horiz-adv-x="1110" d="M197 0v1364h159v-236h183q102 0 190 -24.5t152.5 -73.5t100.5 -123t36 -172q0 -203 -131 -311.5t-371 -108.5h-160v-315h-159zM356 451h160q180 0 259 71.5t79 206.5q0 57 -17.5 106.5t-57.5 84t-103.5 54t-153.5 19.5h-166v-542z" />
<glyph unicode="&#xdf;" horiz-adv-x="1703" d="M80 88l72 109q10 -8 29.5 -22.5t50 -29t72.5 -25.5t95 -11q98 0 157.5 42t59.5 117q0 45 -18 76t-51 55.5t-81 46t-106 48.5q-49 23 -95 49t-80.5 61t-55 81t-20.5 108q0 68 26.5 119t71.5 85.5t105.5 53t125.5 18.5q63 0 111.5 -9t84.5 -22.5t60.5 -29t40.5 -25.5 l-69 -111q-29 20 -86.5 45t-137.5 25t-132 -35t-52 -108q0 -41 15.5 -69t43 -49.5t64.5 -38.5t78 -36q55 -25 110.5 -52.5t98.5 -65t69.5 -90t26.5 -126.5q0 -135 -100.5 -212.5t-266.5 -77.5q-66 0 -117 11t-90.5 27.5t-67.5 35t-42 32.5zM932 88l72 109q10 -8 29.5 -22.5 t50 -29t72.5 -25.5t95 -11q98 0 157.5 42t59.5 117q0 45 -18 76t-51 55.5t-81 46t-106 48.5q-49 23 -95 49t-81 61t-55 81t-20 108q0 68 26.5 119t71.5 85.5t105.5 53t125.5 18.5q63 0 111.5 -9t84.5 -22.5t60.5 -29t40.5 -25.5l-69 -111q-29 20 -86.5 45t-137.5 25 t-132 -35t-52 -108q0 -41 15.5 -69t43 -49.5t64.5 -38.5t78 -36q55 -25 110.5 -52.5t98.5 -65t69.5 -90t26.5 -126.5q0 -135 -100.5 -212.5t-266.5 -77.5q-66 0 -117 11t-91 27.5t-67.5 35t-41.5 32.5z" />
<glyph unicode="&#xe0;" horiz-adv-x="1077" d="M41 0l422 1049h149l426 -1049h-159l-95 240h-501l-93 -240h-149zM199 1446h223l189 -258h-135zM332 369h403l-135 346q-14 35 -24.5 66.5t-20.5 60.5q-10 31 -20 61h-5l-20 -61q-10 -29 -21.5 -61.5t-23.5 -65.5z" />
<glyph unicode="&#xe1;" horiz-adv-x="1077" d="M41 0l422 1049h149l426 -1049h-159l-95 240h-501l-93 -240h-149zM332 369h403l-135 346q-14 35 -24.5 66.5t-20.5 60.5q-10 31 -20 61h-5l-20 -61q-10 -29 -21.5 -61.5t-23.5 -65.5zM480 1188l188 258h223l-276 -258h-135z" />
<glyph unicode="&#xe2;" horiz-adv-x="1077" d="M41 0l422 1049h149l426 -1049h-159l-95 240h-501l-93 -240h-149zM234 1190l252 313h110l248 -313h-141l-166 174l-162 -174h-141zM332 369h403l-135 346q-14 35 -24.5 66.5t-20.5 60.5q-10 31 -20 61h-5l-20 -61q-10 -29 -21.5 -61.5t-23.5 -65.5z" />
<glyph unicode="&#xe3;" horiz-adv-x="1077" d="M41 0l422 1049h149l426 -1049h-159l-95 240h-501l-93 -240h-149zM242 1284q14 18 32.5 40t42 40t53.5 30.5t65 12.5q39 0 66.5 -12.5t51 -27.5t47 -27.5t52.5 -12.5q41 0 66.5 23.5t37.5 40.5l80 -78q-16 -20 -35.5 -42t-43 -38t-52.5 -27.5t-66 -11.5t-64.5 12.5 t-51 27.5t-47 27.5t-54.5 12.5q-35 0 -60.5 -25.5t-39.5 -40.5zM332 369h403l-135 346q-14 35 -24.5 66.5t-20.5 60.5q-10 31 -20 61h-5l-20 -61q-10 -29 -21.5 -61.5t-23.5 -65.5z" />
<glyph unicode="&#xe4;" horiz-adv-x="1077" d="M41 0l422 1049h149l426 -1049h-159l-95 240h-501l-93 -240h-149zM238 1294q0 45 31.5 77t76.5 32q47 0 79 -32t32 -77q0 -47 -31.5 -78.5t-79.5 -31.5q-45 0 -76.5 31.5t-31.5 78.5zM332 369h403l-135 346q-14 35 -24.5 66.5t-20.5 60.5q-10 31 -20 61h-5l-20 -61 q-10 -29 -21.5 -61.5t-23.5 -65.5zM621 1294q0 45 31.5 77t76.5 32q47 0 79 -32t32 -77q0 -47 -31.5 -78.5t-79.5 -31.5q-45 0 -76.5 31.5t-31.5 78.5z" />
<glyph unicode="&#xe5;" horiz-adv-x="1077" d="M41 0l422 1049h149l426 -1049h-159l-95 240h-501l-93 -240h-149zM332 369h403l-135 346q-14 35 -24.5 66.5t-20.5 60.5q-10 31 -20 61h-5l-20 -61q-10 -29 -21.5 -61.5t-23.5 -65.5zM344 1311q0 41 16.5 76.5t43 61.5t61.5 41t74 15t74 -15t61.5 -41t43 -61.5t16.5 -76.5 t-16.5 -77t-43 -61.5t-61.5 -41t-74 -15.5t-74 15.5t-61.5 41t-43 61.5t-16.5 77zM437 1311q0 -45 27.5 -79t74.5 -34t74.5 34t27.5 79q0 47 -27.5 79.5t-74.5 32.5t-74.5 -32.5t-27.5 -79.5z" />
<glyph unicode="&#xe6;" horiz-adv-x="1384" d="M-16 0l630 1049h654v-127h-428v-308h374v-125h-374v-362h438v-127h-594v266h-377l-155 -266h-168zM381 391h303v518z" />
<glyph unicode="&#xe7;" horiz-adv-x="1038" d="M94 526q0 111 37 209.5t106.5 172t171 117.5t232.5 44q106 0 179 -21.5t134 -60.5l-75 -115q-47 31 -105.5 49.5t-136.5 18.5q-94 0 -166 -30.5t-119 -85t-71.5 -129t-24.5 -163.5q0 -90 23.5 -166.5t71.5 -134t120 -89t170 -31.5q90 0 153.5 25.5t110.5 60.5l68 -109 q-41 -35 -119 -67.5t-182 -38.5l-45 -117q63 -10 103 -47t40 -97q0 -84 -66.5 -127t-158.5 -43q-55 0 -87 8.5t-48 16.5l24 86q14 -8 41 -15t68 -7q47 0 74.5 19t27.5 60q0 29 -12 45.5t-32.5 25.5t-47.5 11t-53 2l67 183q-115 12 -203 59t-148 121t-91 166t-31 194z" />
<glyph unicode="&#xe8;" horiz-adv-x="911" d="M141 1446h223l189 -258h-135zM164 0v1049h629v-127h-476v-308h424v-125h-424v-362h486v-127h-639z" />
<glyph unicode="&#xe9;" horiz-adv-x="911" d="M164 0v1049h629v-127h-476v-308h424v-125h-424v-362h486v-127h-639zM398 1188l188 258h223l-276 -258h-135z" />
<glyph unicode="&#xea;" horiz-adv-x="911" d="M162 1190l252 313h110l248 -313h-141l-166 174l-162 -174h-141zM164 0v1049h629v-127h-476v-308h424v-125h-424v-362h486v-127h-639z" />
<glyph unicode="&#xeb;" horiz-adv-x="911" d="M164 0v1049h629v-127h-476v-308h424v-125h-424v-362h486v-127h-639zM172 1294q0 45 31.5 77t76.5 32q47 0 79 -32t32 -77q0 -47 -31.5 -78.5t-79.5 -31.5q-45 0 -76.5 31.5t-31.5 78.5zM555 1294q0 45 31.5 77t76.5 32q47 0 79 -32t32 -77q0 -47 -31.5 -78.5t-79.5 -31.5 q-45 0 -76.5 31.5t-31.5 78.5z" />
<glyph unicode="&#xec;" horiz-adv-x="512" d="M-82 1446h223l189 -258h-135zM180 0v983h152v-983h-152z" />
<glyph unicode="&#xed;" horiz-adv-x="512" d="M180 0v983h152v-983h-152zM191 1188l188 258h223l-276 -258h-135z" />
<glyph unicode="&#xee;" horiz-adv-x="512" d="M-47 1190l252 313h110l248 -313h-141l-166 174l-162 -174h-141zM180 0v983h152v-983h-152z" />
<glyph unicode="&#xef;" horiz-adv-x="512" d="M-43 1294q0 45 31.5 77t76.5 32q47 0 79 -32t32 -77q0 -47 -31.5 -78.5t-79.5 -31.5q-45 0 -76.5 31.5t-31.5 78.5zM180 0v983h152v-983h-152zM340 1294q0 45 31.5 77t76.5 32q47 0 79 -32t32 -77q0 -47 -31.5 -78.5t-79.5 -31.5q-45 0 -76.5 31.5t-31.5 78.5z" />
<glyph unicode="&#xf0;" horiz-adv-x="1155" d="M51 461v119h113v469h276q162 0 280 -36t193.5 -102.5t112.5 -161t37 -210.5q0 -117 -37 -215.5t-113.5 -170t-196.5 -112.5t-284 -41h-268v461h-113zM317 125h127q225 0 342 98.5t117 308.5q0 213 -113.5 303.5t-353.5 90.5h-119v-346h244v-119h-244v-336z" />
<glyph unicode="&#xf1;" horiz-adv-x="1206" d="M160 0v1049h155l490 -672q23 -31 41 -60.5t33 -54.5q16 -29 30 -55h4q-2 25 -4 49q-2 23 -2 50.5v58.5v684h140v-1049h-140l-518 711q-16 23 -32.5 50t-28.5 50q-14 27 -29 51h-2q0 -20 2 -43q2 -18 3 -41.5t1 -46.5v-731h-143zM305 1284q14 18 32.5 40t42 40t53.5 30.5 t65 12.5q39 0 66.5 -12.5t51 -27.5t47 -27.5t52.5 -12.5q41 0 66.5 23.5t37.5 40.5l80 -78q-16 -20 -35.5 -42t-43 -38t-52.5 -27.5t-66 -11.5t-64.5 12.5t-51 27.5t-47 27.5t-54.5 12.5q-35 0 -60.5 -25.5t-39.5 -40.5z" />
<glyph unicode="&#xf2;" horiz-adv-x="1280" d="M94 522q0 109 37 208t106.5 174t172 120t231.5 45t230.5 -44t172 -119t107.5 -173t37 -205q0 -109 -37 -207t-106.5 -173.5t-171 -120.5t-230.5 -45t-231.5 44t-173 118.5t-107.5 172t-37 205.5zM256 528q0 -84 24.5 -160.5t72.5 -134t120 -91t168 -33.5q94 0 166 32.5 t121 90t73.5 132t24.5 158.5t-24.5 161t-71.5 134t-120 91t-167 34t-167 -34t-122 -90t-73.5 -132t-24.5 -158zM299 1446h223l189 -258h-135z" />
<glyph unicode="&#xf3;" horiz-adv-x="1280" d="M94 522q0 109 37 208t106.5 174t172 120t231.5 45t230.5 -44t172 -119t107.5 -173t37 -205q0 -109 -37 -207t-106.5 -173.5t-171 -120.5t-230.5 -45t-231.5 44t-173 118.5t-107.5 172t-37 205.5zM256 528q0 -84 24.5 -160.5t72.5 -134t120 -91t168 -33.5q94 0 166 32.5 t121 90t73.5 132t24.5 158.5t-24.5 161t-71.5 134t-120 91t-167 34t-167 -34t-122 -90t-73.5 -132t-24.5 -158zM580 1188l188 258h223l-276 -258h-135z" />
<glyph unicode="&#xf4;" horiz-adv-x="1280" d="M94 522q0 109 37 208t106.5 174t172 120t231.5 45t230.5 -44t172 -119t107.5 -173t37 -205q0 -109 -37 -207t-106.5 -173.5t-171 -120.5t-230.5 -45t-231.5 44t-173 118.5t-107.5 172t-37 205.5zM256 528q0 -84 24.5 -160.5t72.5 -134t120 -91t168 -33.5q94 0 166 32.5 t121 90t73.5 132t24.5 158.5t-24.5 161t-71.5 134t-120 91t-167 34t-167 -34t-122 -90t-73.5 -132t-24.5 -158zM334 1190l252 313h110l248 -313h-141l-166 174l-162 -174h-141z" />
<glyph unicode="&#xf5;" horiz-adv-x="1280" d="M94 522q0 109 37 208t106.5 174t172 120t231.5 45t230.5 -44t172 -119t107.5 -173t37 -205q0 -109 -37 -207t-106.5 -173.5t-171 -120.5t-230.5 -45t-231.5 44t-173 118.5t-107.5 172t-37 205.5zM256 528q0 -84 24.5 -160.5t72.5 -134t120 -91t168 -33.5q94 0 166 32.5 t121 90t73.5 132t24.5 158.5t-24.5 161t-71.5 134t-120 91t-167 34t-167 -34t-122 -90t-73.5 -132t-24.5 -158zM342 1284q14 18 32.5 40t42 40t53.5 30.5t65 12.5q39 0 66.5 -12.5t51 -27.5t47 -27.5t52.5 -12.5q41 0 66.5 23.5t37.5 40.5l80 -78q-16 -20 -35.5 -42t-43 -38 t-52.5 -27.5t-66 -11.5t-64.5 12.5t-51 27.5t-47 27.5t-54.5 12.5q-35 0 -60.5 -25.5t-39.5 -40.5z" />
<glyph unicode="&#xf6;" horiz-adv-x="1280" d="M94 522q0 109 37 208t106.5 174t172 120t231.5 45t230.5 -44t172 -119t107.5 -173t37 -205q0 -109 -37 -207t-106.5 -173.5t-171 -120.5t-230.5 -45t-231.5 44t-173 118.5t-107.5 172t-37 205.5zM256 528q0 -84 24.5 -160.5t72.5 -134t120 -91t168 -33.5q94 0 166 32.5 t121 90t73.5 132t24.5 158.5t-24.5 161t-71.5 134t-120 91t-167 34t-167 -34t-122 -90t-73.5 -132t-24.5 -158zM338 1294q0 45 31.5 77t76.5 32q47 0 79 -32t32 -77q0 -47 -31.5 -78.5t-79.5 -31.5q-45 0 -76.5 31.5t-31.5 78.5zM721 1294q0 45 31.5 77t76.5 32q47 0 79 -32 t32 -77q0 -47 -31.5 -78.5t-79.5 -31.5q-45 0 -76.5 31.5t-31.5 78.5z" />
<glyph unicode="&#xf7;" d="M143 -444v1919h1919v-1919h-1919zM297 -291h1612v1612h-1612v-1612zM782 0v1042h140v-495l413 495h162l-414 -489l441 -553h-174q-121 150 -215 268q-41 51 -80 98.5t-68 86.5q-37 43 -65 84v-537h-140z" />
<glyph unicode="&#xf8;" horiz-adv-x="1280" d="M94 522q0 109 37 208t106.5 174t172 120t231.5 45q86 0 159.5 -20.5t133.5 -55.5l102 150l90 -68l-53 -74l-53 -73q82 -76 125 -179.5t43 -220.5q0 -109 -37 -207t-106.5 -173.5t-171 -120.5t-230.5 -45q-143 0 -262 57l-102 -145l-86 61l98 143q-96 76 -146.5 186.5 t-50.5 237.5zM254 528q0 -98 29.5 -180t89.5 -139l485 678q-90 57 -215 57q-96 0 -169 -33.5t-122 -90t-73.5 -132.5t-24.5 -160zM455 150q76 -43 186 -44q94 0 167 33t122 90.5t74.5 133t25.5 159.5q0 86 -23.5 161t-70.5 132z" />
<glyph unicode="&#xf9;" horiz-adv-x="1171" d="M154 420v629h155v-611q0 -176 68.5 -251.5t218.5 -75.5q143 0 209.5 79.5t66.5 227.5v631h144v-617q0 -205 -104.5 -327.5t-321.5 -122.5q-115 0 -197 31.5t-135 90t-78.5 138.5t-25.5 178zM246 1446h223l189 -258h-135z" />
<glyph unicode="&#xfa;" horiz-adv-x="1171" d="M154 420v629h155v-611q0 -176 68.5 -251.5t218.5 -75.5q143 0 209.5 79.5t66.5 227.5v631h144v-617q0 -205 -104.5 -327.5t-321.5 -122.5q-115 0 -197 31.5t-135 90t-78.5 138.5t-25.5 178zM506 1188l188 258h223l-276 -258h-135z" />
<glyph unicode="&#xfb;" horiz-adv-x="1171" d="M154 420v629h155v-611q0 -176 68.5 -251.5t218.5 -75.5q143 0 209.5 79.5t66.5 227.5v631h144v-617q0 -205 -104.5 -327.5t-321.5 -122.5q-115 0 -197 31.5t-135 90t-78.5 138.5t-25.5 178zM281 1190l252 313h110l248 -313h-141l-166 174l-162 -174h-141z" />
<glyph unicode="&#xfc;" horiz-adv-x="1171" d="M154 420v629h155v-611q0 -176 68.5 -251.5t218.5 -75.5q143 0 209.5 79.5t66.5 227.5v631h144v-617q0 -205 -104.5 -327.5t-321.5 -122.5q-115 0 -197 31.5t-135 90t-78.5 138.5t-25.5 178zM285 1294q0 45 31.5 77t76.5 32q47 0 79 -32t32 -77q0 -47 -31.5 -78.5 t-79.5 -31.5q-45 0 -76.5 31.5t-31.5 78.5zM668 1294q0 45 31.5 77t76.5 32q47 0 79 -32t32 -77q0 -47 -31.5 -78.5t-79.5 -31.5q-45 0 -76.5 31.5t-31.5 78.5z" />
<glyph unicode="&#xfd;" horiz-adv-x="956" d="M37 1049h166l282 -517h4l279 517h150l-359 -652v-397h-153v397zM420 1188l188 258h223l-276 -258h-135z" />
<glyph unicode="&#xfe;" horiz-adv-x="944" d="M164 0v1049h153v-185h156q86 0 157.5 -18.5t125 -56t83 -96t29.5 -138.5q0 -166 -109.5 -249t-303.5 -83h-138v-223h-153zM317 348h138q135 0 197.5 48t62.5 153q0 96 -58.5 144t-197.5 48h-142v-393z" />
<glyph unicode="&#xff;" horiz-adv-x="956" d="M37 1049h166l282 -517h4l279 517h150l-359 -652v-397h-153v397zM178 1294q0 45 31.5 77t76.5 32q47 0 79 -32t32 -77q0 -47 -31.5 -78.5t-79.5 -31.5q-45 0 -76.5 31.5t-31.5 78.5zM561 1294q0 45 31.5 77t76.5 32q47 0 79 -32t32 -77q0 -47 -31.5 -78.5t-79.5 -31.5 q-45 0 -76.5 31.5t-31.5 78.5z" />
<glyph unicode="&#x152;" horiz-adv-x="1812" d="M109 680q0 141 45 269t131 225.5t209.5 156t281.5 58.5q106 0 203 -25h700v-135h-540v-438h475v-136h-475v-520h555v-135h-715q-90 -25 -199 -25q-158 0 -282.5 57.5t-210.5 155t-132 224.5t-46 268zM276 684q0 -115 33 -219.5t95.5 -183t155.5 -125.5t216 -47 q113 0 203 36v1072q-90 39 -199 38q-123 0 -216 -46t-157.5 -124.5t-97.5 -182t-33 -218.5z" />
<glyph unicode="&#x153;" horiz-adv-x="1497" d="M92 522q0 109 37 208t106.5 174t171 120t230.5 45q96 0 172 -20h571v-127h-428v-308h375v-125h-375v-362h441v-127h-586q-74 -18 -166 -18q-129 0 -231.5 44t-173 118.5t-107.5 172t-37 205.5zM252 528q0 -84 24.5 -160.5t72.5 -134t120 -91t168 -33.5q98 0 164 26v776 q-66 31 -160 31t-167 -34t-122 -90t-74.5 -132t-25.5 -158z" />
<glyph unicode="&#x178;" horiz-adv-x="1136" d="M37 1364h178l365 -696h2l364 696h154l-447 -848v-516h-159v516zM272 1581q0 45 31.5 77t76.5 32q47 0 79 -32t32 -77q0 -47 -31.5 -78.5t-79.5 -31.5q-45 0 -76.5 31.5t-31.5 78.5zM655 1581q0 45 31.5 77t76.5 32q47 0 79 -32t32 -77q0 -47 -31.5 -78.5t-79.5 -31.5 q-45 0 -76.5 31.5t-31.5 78.5z" />
<glyph unicode="&#x2c6;" horiz-adv-x="1024" d="M207 1108l252 313h110l248 -313h-141l-166 174l-162 -174h-141z" />
<glyph unicode="&#x2dc;" horiz-adv-x="1024" d="M215 1202q14 18 32.5 40t42 40t53.5 30.5t65 12.5q39 0 66.5 -12.5t51 -27.5t47 -27.5t52.5 -12.5q41 0 66.5 23.5t37.5 40.5l80 -78q-16 -20 -35.5 -42t-43 -38t-52.5 -27.5t-66 -11.5t-64.5 12.5t-51 27.5t-47 27.5t-54.5 12.5q-35 0 -60.5 -25.5t-39.5 -40.5z" />
<glyph unicode="&#x2000;" horiz-adv-x="914" />
<glyph unicode="&#x2001;" horiz-adv-x="1829" />
<glyph unicode="&#x2002;" horiz-adv-x="914" />
<glyph unicode="&#x2003;" horiz-adv-x="1829" />
<glyph unicode="&#x2004;" horiz-adv-x="609" />
<glyph unicode="&#x2005;" horiz-adv-x="457" />
<glyph unicode="&#x2006;" horiz-adv-x="304" />
<glyph unicode="&#x2007;" horiz-adv-x="304" />
<glyph unicode="&#x2008;" horiz-adv-x="228" />
<glyph unicode="&#x2009;" horiz-adv-x="365" />
<glyph unicode="&#x200a;" horiz-adv-x="101" />
<glyph unicode="&#x2010;" horiz-adv-x="632" d="M111 522v131h411v-131h-411z" />
<glyph unicode="&#x2011;" horiz-adv-x="632" d="M111 522v131h411v-131h-411z" />
<glyph unicode="&#x2012;" horiz-adv-x="632" d="M111 522v131h411v-131h-411z" />
<glyph unicode="&#x2013;" horiz-adv-x="1075" d="M111 500v125h854v-125h-854z" />
<glyph unicode="&#x2014;" horiz-adv-x="1703" d="M111 500v125h1482v-125h-1482z" />
<glyph unicode="&#x2018;" horiz-adv-x="415" d="M88 1040q0 51 14.5 101.5t35 93.5t43 77t36.5 52h111q-23 -29 -49.5 -81t-26.5 -109q0 -29 12 -48.5t27.5 -38t28 -39t12.5 -53.5q0 -43 -32 -71.5t-79 -28.5q-53 0 -93 37.5t-40 107.5z" />
<glyph unicode="&#x2019;" horiz-adv-x="415" d="M84 1288q0 43 31.5 72t79.5 29q53 0 93 -38t40 -108q0 -51 -14.5 -101t-35 -93t-43 -77t-36.5 -52h-111q23 29 49.5 81t26.5 109q0 29 -12.5 48.5t-27.5 37.5t-27.5 38.5t-12.5 53.5z" />
<glyph unicode="&#x201a;" horiz-adv-x="415" d="M84 125q0 43 31.5 71.5t79.5 28.5q53 0 93 -37.5t40 -107.5q0 -51 -14.5 -101.5t-35 -93.5t-43 -76.5t-36.5 -52.5h-111q23 29 49.5 81t26.5 110q0 29 -12.5 48t-27.5 37.5t-27.5 39t-12.5 53.5z" />
<glyph unicode="&#x201c;" horiz-adv-x="745" d="M68 1040q0 51 14 101.5t34.5 93.5t43 77t37.5 52h110q-23 -29 -49.5 -81t-26.5 -109q0 -29 12.5 -48.5t28 -38t27.5 -39t12 -53.5q0 -43 -31.5 -71.5t-78.5 -28.5q-53 0 -93 37.5t-40 107.5zM418 1040q0 51 14 101.5t34.5 93.5t43 77t37.5 52h110q-23 -29 -49 -81 t-26 -109q0 -29 12 -48.5t27.5 -38t28 -39t12.5 -53.5q0 -43 -32 -71.5t-79 -28.5q-53 0 -93 37.5t-40 107.5z" />
<glyph unicode="&#x201d;" horiz-adv-x="745" d="M84 1288q0 43 31.5 72t79.5 29q53 0 93 -38t40 -108q0 -51 -14.5 -101t-35 -93t-43 -77t-36.5 -52h-111q23 29 49.5 81t26.5 109q0 29 -12.5 48.5t-27.5 37.5t-27.5 38.5t-12.5 53.5zM434 1288q0 43 32 72t79 29q53 0 93 -38t40 -108q0 -51 -14.5 -101t-35 -93t-43 -77 t-36.5 -52h-111q23 29 49.5 81t26.5 109q0 29 -12.5 48.5t-27.5 37.5t-27.5 38.5t-12.5 53.5z" />
<glyph unicode="&#x201e;" horiz-adv-x="765" d="M84 125q0 43 31.5 71.5t79.5 28.5q53 0 93 -37.5t40 -107.5q0 -51 -14.5 -101.5t-35 -93.5t-43 -76.5t-36.5 -52.5h-111q23 29 49.5 81t26.5 110q0 29 -12.5 48t-27.5 37.5t-27.5 39t-12.5 53.5zM434 125q0 43 32 71.5t79 28.5q53 0 93 -37.5t40 -107.5 q0 -51 -14.5 -101.5t-35 -93.5t-43 -76.5t-36.5 -52.5h-111q23 29 49.5 81t26.5 110q0 29 -12.5 48t-27.5 37.5t-27.5 39t-12.5 53.5z" />
<glyph unicode="&#x2022;" horiz-adv-x="741" d="M115 586q0 53 20.5 99t55 81t80.5 55.5t100 20.5q53 0 99 -20.5t81 -55.5t55.5 -81t20.5 -99t-20.5 -99.5t-55.5 -81t-81 -54t-99 -19.5t-99.5 19.5t-81 54t-55 80.5t-20.5 100z" />
<glyph unicode="&#x2026;" horiz-adv-x="1271" d="M102 104q0 51 35 86t88 35q51 0 87 -35t36 -86t-36 -86.5t-87 -35.5q-53 0 -88 35.5t-35 86.5zM514 104q0 51 35 86t86 35q53 0 88 -35t35 -86t-35 -86.5t-88 -35.5q-51 0 -86 35.5t-35 86.5zM924 104q0 51 35.5 86t87.5 35q51 0 86.5 -35t35.5 -86t-35.5 -86.5 t-86.5 -35.5t-87 35.5t-36 86.5z" />
<glyph unicode="&#x202f;" horiz-adv-x="365" />
<glyph unicode="&#x2039;" horiz-adv-x="610" d="M92 502l273 389h157l-270 -389l270 -387h-157z" />
<glyph unicode="&#x203a;" horiz-adv-x="610" d="M88 115l270 387l-270 389h156l274 -389l-274 -387h-156z" />
<glyph unicode="&#x205f;" horiz-adv-x="457" />
<glyph unicode="&#x2122;" horiz-adv-x="1462" d="M88 1272v92h453v-92h-172v-504h-111v504h-170zM614 768l64 596h123l137 -350q18 -47 29 -80q6 -18 10 -35h4q4 14 10 33q4 16 11.5 36.5t17.5 47.5l137 348h125l66 -596h-109l-33 338q-4 20 -4 44t-2 42q-2 23 -2 43h-4q-4 -20 -10 -43q-4 -20 -13.5 -46t-19.5 -54 l-131 -324h-94l-121 307q-10 27 -19.5 55.5t-15.5 51.5q-8 27 -14 53h-4q0 -16 -2 -39q-2 -18 -3.5 -42t-3.5 -52l-28 -334h-101z" />
<glyph unicode="&#xe000;" horiz-adv-x="1044" d="M0 0v1044h1044v-1044h-1044z" />
</font>
</defs>
</svg>
